<svg version="1" xmlns="http://www.w3.org/2000/svg" width="1365.333" height="1365.333" viewBox="0 0 1024.000000 1024.000000"><path d="M476.5 2.1c-109.3 7.7-209.7 48.4-295 119.3-15.6 13-48.3 45.7-61.4 61.6-64.2 77-104 168.1-116 265-16.4 132.3 18 262.6 97.4 369.5 27 36.4 64.9 74.5 102 102.6 52.4 39.7 116.8 70.7 180 86.7 151.4 38.4 308.3 7.5 433-85.3 37.3-27.6 76.4-66.8 104-104 79.4-106.9 113.8-237.2 97.4-369.5-12-96.9-51.8-188-116-265-13.1-15.9-45.8-48.6-61.4-61.6C758.1 52.9 663.1 13.2 557 3c-15.6-1.5-64.5-2.1-80.5-.9zM663 150.6c8.2 1.7 20.1 6.1 26.8 10 2.9 1.7 4.2 3.2 4.2 4.7 0 1.2-6.8 60.1-15.1 131-8.4 70.8-14.9 129-14.6 129.3.8.8 15.4-8.9 27.9-18.7 38-29.5 72.3-69.4 93.8-108.8 5.2-9.5 7-11.8 7-8.8 0 2.4 9.4 19.9 15.7 29.2 3.3 4.9 10.9 15.3 16.8 23 5.9 7.7 11.2 14.7 11.8 15.6.9 1.4-.9 3.7-9.8 13.2-12.4 13.4-43.7 43-64 60.7-29.8 26.1-66.9 54.7-97.1 75l-16.1 10.9-.7 9.8c-6.1 85.5-19.1 185-30.5 233.3-7.6 32.5-26.9 68-52.8 97.4-26.6 30.3-59.7 50.1-96.3 57.7-15.2 3.2-41.1 3.2-56 0-57.2-12.2-98.7-52.3-110.1-106.4-3.1-14.6-3.1-36.9-.1-52.5 5.7-28.8 17.8-54.5 39.1-83 15.6-20.9 57-61.1 79.7-77.4 2.4-1.7 4.2-3.3 4-3.6-1.1-1-44.2 22.4-57 31.1l-5.9 4-7.8-1.7c-18.6-4-43.1-14.3-58.5-24.6-59.2-39.7-90.8-112.5-86.3-198.3 3.1-58.9 24.9-117 60.5-161.7 15.7-19.7 41-41.9 62.9-55.3 52.5-31.9 117-43.1 189-32.7 15.4 2.3 40.1 7.6 54.5 11.7 8.1 2.3 9.5 2.4 11.4 1.3 14-9 29.8-15.2 43.1-17 8.4-1 20.3-.4 30.5 1.6zm34.6 399.9c81.1 42.1 142.8 85.7 170.2 120.4l4.2 5.3-5.7 3.4c-18.2 11-44 36.3-56.3 55.1l-4.7 7.2-5.7-8.4C783.5 709.8 764.1 687 737 660c-19.4-19.5-41.4-39.4-56.3-51.2-4.3-3.4-6.7-6-6.7-7.3 0-4.2 5-56 5.6-57.7.3-1 .8-1.8 1.1-1.8.4 0 8 3.8 16.9 8.5z"/><path d="M488.7 226c-65.2 8.2-108.6 47.6-128.1 116.2-6.7 23.7-10.4 47.7-11.3 72.8-2.3 66.5 21.2 112 64.2 124.1 11.1 3.2 27.6 3.1 39.5 0 34.4-9.1 61.8-36.7 73.8-74.2 2.5-7.8 3.8-15.4 6.6-40 4-34 9.4-79.9 16.1-135.9 2.5-20.6 5-41.9 5.7-47.3.7-6.1.8-10.1.2-10.7-.5-.5-6.3-1.9-12.9-3.1-13.4-2.3-42.3-3.4-53.8-1.9zM498.2 616.1c-43 30.6-80.7 67.1-100.7 97.5-25 37.8-26.9 71.6-5.8 97.9 6 7.4 11.6 11.7 19 14.5 7.2 2.8 19.2 3.7 26.5 2 12.9-3 28.3-13.3 37-24.7 10.5-13.6 14.7-24.6 17.7-45.6 4.6-32.3 10.1-75.9 15.6-122.7 1.3-11.8 2.7-22.7 3-24.3.2-1.5.1-2.7-.3-2.7s-5.8 3.7-12 8.1z"/></svg>