<?xml version="1.0" standalone="no"?>
<!DOCTYPE svg PUBLIC "-//W3C//DTD SVG 20010904//EN"
 "http://www.w3.org/TR/2001/REC-SVG-20010904/DTD/svg10.dtd">
<svg version="1.0" xmlns="http://www.w3.org/2000/svg"
 width="1024.000000pt" height="1024.000000pt" viewBox="0 0 1024.000000 1024.000000"
 preserveAspectRatio="xMidYMid meet">
<metadata>
Created by potrace 1.11, written by Peter Selinger 2001-2013
</metadata>
<g transform="translate(0.000000,1024.000000) scale(0.100000,-0.100000)"
fill="#000000" stroke="none">
<path d="M6378 8755 c-2 -2 -31 -6 -65 -9 -113 -12 -266 -69 -382 -143 l-54
-35 -61 16 c-34 9 -68 18 -77 21 -9 2 -52 13 -95 24 -88 23 -302 66 -379 76
-27 4 -61 9 -75 11 -30 5 -94 12 -175 20 -143 14 -550 7 -666 -11 -20 -3 -51
-7 -70 -9 -242 -26 -709 -185 -871 -298 -16 -11 -28 -16 -28 -11 0 4 -4 3 -8
-3 -4 -6 -29 -24 -57 -40 -55 -32 -227 -158 -283 -207 -171 -151 -340 -344
-454 -518 -77 -117 -143 -230 -141 -239 1 -3 -4 -12 -11 -20 -17 -20 -110
-232 -142 -323 -14 -40 -28 -79 -31 -87 -7 -18 -4 -7 -42 -140 -34 -121 -74
-318 -86 -426 -19 -173 -25 -470 -11 -590 4 -32 9 -79 12 -104 8 -80 15 -118
60 -320 3 -14 12 -47 20 -75 109 -357 262 -623 494 -856 89 -90 283 -249 303
-249 4 0 30 -15 59 -33 29 -18 69 -40 88 -49 19 -9 60 -27 90 -41 83 -37 225
-83 317 -103 74 -16 85 -16 100 -2 22 19 195 124 283 173 83 45 320 165 327
165 3 0 -35 -32 -83 -70 -123 -98 -124 -98 -195 -160 -64 -55 -203 -186 -288
-271 -130 -130 -285 -315 -353 -423 -18 -28 -35 -53 -38 -56 -8 -7 -51 -81
-97 -170 -83 -158 -158 -374 -178 -511 -3 -24 -9 -57 -12 -74 -7 -39 -12 -277
-6 -288 3 -5 7 -29 9 -55 2 -26 5 -54 7 -62 2 -8 7 -33 11 -55 14 -70 65 -214
108 -299 193 -385 557 -652 1008 -741 64 -13 145 -19 255 -19 111 -1 249 9
264 18 4 3 26 7 51 11 25 4 48 9 52 12 5 2 20 7 35 9 33 6 195 66 260 97 207
97 464 302 634 507 58 69 164 218 209 290 97 159 208 386 225 459 3 9 18 68
35 131 17 63 33 126 35 140 2 14 13 70 24 125 10 55 24 127 30 160 6 33 13 70
15 82 3 11 8 43 12 70 3 26 8 57 10 68 2 11 11 72 20 135 16 120 18 139 28
205 4 22 8 60 11 85 3 25 9 79 15 120 5 41 12 100 15 131 3 31 7 65 9 75 2 11
7 51 10 89 8 84 14 146 30 295 7 64 16 163 21 235 2 28 6 73 9 100 3 28 9 91
12 140 4 50 8 101 9 115 1 14 3 41 4 61 1 35 6 40 139 129 75 51 163 113 195
137 31 23 61 43 66 43 5 0 11 3 13 8 2 4 57 47 123 96 104 78 337 260 371 291
7 5 36 30 65 55 294 248 459 400 731 674 98 99 178 183 178 188 0 5 -55 82
-123 171 -188 246 -272 378 -313 491 l-21 58 -63 -113 c-132 -236 -288 -455
-460 -644 -207 -227 -500 -479 -707 -609 -41 -25 -69 -34 -60 -18 3 4 8 32 11
62 4 30 9 71 11 90 6 42 12 97 19 165 12 105 18 159 21 174 4 21 15 125 20
176 1 22 6 58 9 80 7 51 13 105 21 175 4 30 8 66 10 80 2 14 7 54 10 90 4 36
9 74 11 85 2 10 6 49 9 85 4 36 8 72 10 80 3 8 7 42 10 75 3 33 7 76 10 95 2
19 7 58 10 86 4 28 8 68 10 90 2 21 6 55 9 74 3 19 8 62 11 95 3 33 8 74 11
90 2 17 6 50 8 75 4 41 7 67 21 170 2 19 7 58 10 85 10 88 17 150 20 165 2 8
6 46 9 84 4 38 9 73 12 77 16 27 -195 120 -337 149 -49 9 -224 21 -231 15z
m-1043 -780 c50 -7 104 -16 120 -20 79 -17 114 -28 110 -35 -2 -4 -7 -33 -10
-66 -7 -77 -12 -120 -19 -169 -3 -22 -8 -60 -11 -85 -3 -25 -7 -61 -9 -80 -3
-19 -8 -60 -11 -90 -4 -30 -8 -66 -10 -80 -4 -34 -17 -139 -20 -170 -4 -36
-16 -131 -20 -160 -2 -14 -6 -54 -9 -90 -3 -36 -8 -75 -10 -87 -3 -12 -7 -50
-11 -85 -3 -35 -8 -74 -10 -88 -8 -53 -15 -107 -20 -160 -3 -30 -10 -91 -15
-135 -14 -108 -18 -139 -26 -215 -3 -36 -8 -73 -10 -83 -2 -10 -8 -64 -14
-120 -6 -56 -13 -115 -15 -132 -2 -16 -7 -52 -10 -80 -12 -100 -48 -211 -110
-335 -181 -366 -535 -597 -893 -584 -84 3 -112 6 -152 19 -10 3 -27 7 -37 9
-128 26 -326 177 -418 321 -99 156 -164 349 -192 577 -10 81 -10 410 0 513 12
125 36 282 58 375 11 47 22 96 25 110 9 48 87 275 116 340 157 349 383 598
674 743 81 41 253 102 310 111 21 4 48 9 58 12 97 31 432 41 591 19z m-230
-3834 c-2 -11 -7 -51 -10 -88 -4 -37 -9 -77 -11 -88 -2 -11 -6 -42 -9 -70 -3
-27 -8 -72 -11 -100 -4 -27 -8 -61 -9 -75 -2 -27 -14 -120 -20 -160 -2 -14 -7
-50 -10 -80 -2 -30 -7 -66 -9 -80 -3 -14 -7 -50 -11 -80 -3 -30 -8 -71 -10
-90 -7 -54 -16 -122 -20 -155 -2 -16 -7 -50 -10 -75 -3 -25 -7 -55 -9 -67 -3
-12 -7 -48 -11 -80 -3 -32 -8 -69 -10 -83 -4 -29 -11 -75 -20 -140 -12 -85
-16 -105 -36 -170 -58 -191 -222 -382 -389 -457 -81 -37 -103 -42 -196 -50
-219 -17 -411 134 -496 391 -23 72 -26 94 -23 196 3 127 5 143 41 249 41 123
114 257 224 410 94 132 322 375 484 516 32 28 63 55 69 61 9 8 158 128 257
207 8 7 38 28 65 47 28 19 52 37 55 40 3 3 18 14 34 25 16 11 43 30 60 42 39
27 46 28 41 4z"/>
<path d="M6792 4813 c1 -5 -2 -39 -6 -78 -11 -97 -13 -118 -21 -218 -3 -48 -8
-102 -10 -120 -2 -18 -6 -68 -10 -112 l-6 -80 63 -50 c79 -62 255 -213 333
-285 84 -77 389 -383 456 -455 149 -164 394 -477 435 -557 8 -15 18 -28 23
-28 5 0 21 19 36 43 89 135 235 298 369 412 32 28 64 55 70 61 6 5 49 36 96
68 47 32 87 62 88 67 11 28 -249 292 -428 435 -285 229 -623 448 -1075 699
-112 62 -394 205 -404 205 -6 0 -10 -3 -9 -7z"/>
</g>
</svg>
